<svg width="35" height="40" viewBox="0 0 35 40" fill="none" xmlns="http://www.w3.org/2000/svg">
<path d="M33.9662 39.51H4.86621V0.709961H25.5542V9.41596H33.9662V39.51Z" fill="#FCFCFC" stroke="#818181" stroke-miterlimit="10"/>
<path d="M33.9237 9.55696L25.5117 0.856958L25.9817 0.256958L34.4387 8.93096L33.9237 9.55696Z" fill="#818181"/>
<path d="M17.76 10.454H2C0.89543 10.454 0 11.3494 0 12.454V28.214C0 29.3186 0.89543 30.214 2 30.214H17.76C18.8646 30.214 19.76 29.3186 19.76 28.214V12.454C19.76 11.3494 18.8646 10.454 17.76 10.454Z" fill="#107C42"/>
<path d="M15.093 26.838H12.46L4.66602 13.83H7.35201L15.093 26.838Z" fill="white"/>
<path d="M4.66602 26.838H7.29902L15.093 13.83H12.407L4.66602 26.838Z" fill="white"/>
<path d="M25.553 15.506H20.793V17.617H25.553V15.506Z" fill="#21A365"/>
<path d="M31.4358 15.506H26.6758V17.617H31.4358V15.506Z" fill="#33C481"/>
<path d="M25.553 18.6949H20.793V20.8059H25.553V18.6949Z" fill="#107C42"/>
<path d="M31.4358 18.6949H26.6758V20.8059H31.4358V18.6949Z" fill="#21A365"/>
<path d="M25.553 21.8829H20.793V23.9939H25.553V21.8829Z" fill="#195D38"/>
<path d="M31.4358 21.8829H26.6758V23.9939H31.4358V21.8829Z" fill="#104B2B"/>
</svg>
