<svg width="22" height="22" viewBox="0 0 22 22" fill="none" xmlns="http://www.w3.org/2000/svg">
<ellipse cx="6.41667" cy="15.5833" rx="1.83333" ry="1.83333" stroke="#4B465C" stroke-width="1.5" stroke-linecap="round" stroke-linejoin="round"/>
<ellipse cx="6.41667" cy="15.5833" rx="1.83333" ry="1.83333" stroke="white" stroke-opacity="0.2" stroke-width="1.5" stroke-linecap="round" stroke-linejoin="round"/>
<circle cx="15.5833" cy="15.5833" r="1.83333" stroke="#4B465C" stroke-width="1.5" stroke-linecap="round" stroke-linejoin="round"/>
<circle cx="15.5833" cy="15.5833" r="1.83333" stroke="white" stroke-opacity="0.2" stroke-width="1.5" stroke-linecap="round" stroke-linejoin="round"/>
<path d="M4.58333 16.3334C4.99755 16.3334 5.33333 15.9976 5.33333 15.5834C5.33333 15.1692 4.99755 14.8334 4.58333 14.8334V16.3334ZM2.75 15.5834H2C2 15.9976 2.33579 16.3334 2.75 16.3334V15.5834ZM11.9167 4.58337H12.6667C12.6667 4.16916 12.3309 3.83337 11.9167 3.83337V4.58337ZM11.1667 15.5834C11.1667 15.9976 11.5025 16.3334 11.9167 16.3334C12.3309 16.3334 12.6667 15.9976 12.6667 15.5834H11.1667ZM8.25 14.8334C7.83579 14.8334 7.5 15.1692 7.5 15.5834C7.5 15.9976 7.83579 16.3334 8.25 16.3334V14.8334ZM13.75 16.3334C14.1642 16.3334 14.5 15.9976 14.5 15.5834C14.5 15.1692 14.1642 14.8334 13.75 14.8334V16.3334ZM17.4167 14.8334C17.0025 14.8334 16.6667 15.1692 16.6667 15.5834C16.6667 15.9976 17.0025 16.3334 17.4167 16.3334V14.8334ZM19.25 15.5834V16.3334C19.6642 16.3334 20 15.9976 20 15.5834H19.25ZM19.25 10.0834H20C20 9.66916 19.6642 9.33337 19.25 9.33337V10.0834ZM11.9167 9.33337C11.5025 9.33337 11.1667 9.66916 11.1667 10.0834C11.1667 10.4976 11.5025 10.8334 11.9167 10.8334V9.33337ZM11.9167 4.75004C11.5025 4.75004 11.1667 5.08583 11.1667 5.50004C11.1667 5.91425 11.5025 6.25004 11.9167 6.25004V4.75004ZM16.5 5.50004L17.1431 5.11417C17.0076 4.88826 16.7634 4.75004 16.5 4.75004V5.50004ZM18.6069 10.4692C18.82 10.8244 19.2807 10.9396 19.6359 10.7265C19.9911 10.5134 20.1062 10.0527 19.8931 9.6975L18.6069 10.4692ZM4.58333 14.8334H2.75V16.3334H4.58333V14.8334ZM3.5 15.5834V5.50004H2V15.5834H3.5ZM3.5 5.50004C3.5 5.40799 3.57462 5.33337 3.66667 5.33337V3.83337C2.74619 3.83337 2 4.57957 2 5.50004H3.5ZM3.66667 5.33337H11.9167V3.83337H3.66667V5.33337ZM11.1667 4.58337V15.5834H12.6667V4.58337H11.1667ZM8.25 16.3334H13.75V14.8334H8.25V16.3334ZM17.4167 16.3334H19.25V14.8334H17.4167V16.3334ZM20 15.5834V10.0834H18.5V15.5834H20ZM19.25 9.33337H11.9167V10.8334H19.25V9.33337ZM11.9167 6.25004H16.5V4.75004H11.9167V6.25004ZM15.8569 5.88591L18.6069 10.4692L19.8931 9.6975L17.1431 5.11417L15.8569 5.88591Z" fill="#4B465C"/>
<path d="M4.58333 16.3334C4.99755 16.3334 5.33333 15.9976 5.33333 15.5834C5.33333 15.1692 4.99755 14.8334 4.58333 14.8334V16.3334ZM2.75 15.5834H2C2 15.9976 2.33579 16.3334 2.75 16.3334V15.5834ZM11.9167 4.58337H12.6667C12.6667 4.16916 12.3309 3.83337 11.9167 3.83337V4.58337ZM11.1667 15.5834C11.1667 15.9976 11.5025 16.3334 11.9167 16.3334C12.3309 16.3334 12.6667 15.9976 12.6667 15.5834H11.1667ZM8.25 14.8334C7.83579 14.8334 7.5 15.1692 7.5 15.5834C7.5 15.9976 7.83579 16.3334 8.25 16.3334V14.8334ZM13.75 16.3334C14.1642 16.3334 14.5 15.9976 14.5 15.5834C14.5 15.1692 14.1642 14.8334 13.75 14.8334V16.3334ZM17.4167 14.8334C17.0025 14.8334 16.6667 15.1692 16.6667 15.5834C16.6667 15.9976 17.0025 16.3334 17.4167 16.3334V14.8334ZM19.25 15.5834V16.3334C19.6642 16.3334 20 15.9976 20 15.5834H19.25ZM19.25 10.0834H20C20 9.66916 19.6642 9.33337 19.25 9.33337V10.0834ZM11.9167 9.33337C11.5025 9.33337 11.1667 9.66916 11.1667 10.0834C11.1667 10.4976 11.5025 10.8334 11.9167 10.8334V9.33337ZM11.9167 4.75004C11.5025 4.75004 11.1667 5.08583 11.1667 5.50004C11.1667 5.91425 11.5025 6.25004 11.9167 6.25004V4.75004ZM16.5 5.50004L17.1431 5.11417C17.0076 4.88826 16.7634 4.75004 16.5 4.75004V5.50004ZM18.6069 10.4692C18.82 10.8244 19.2807 10.9396 19.6359 10.7265C19.9911 10.5134 20.1062 10.0527 19.8931 9.6975L18.6069 10.4692ZM4.58333 14.8334H2.75V16.3334H4.58333V14.8334ZM3.5 15.5834V5.50004H2V15.5834H3.5ZM3.5 5.50004C3.5 5.40799 3.57462 5.33337 3.66667 5.33337V3.83337C2.74619 3.83337 2 4.57957 2 5.50004H3.5ZM3.66667 5.33337H11.9167V3.83337H3.66667V5.33337ZM11.1667 4.58337V15.5834H12.6667V4.58337H11.1667ZM8.25 16.3334H13.75V14.8334H8.25V16.3334ZM17.4167 16.3334H19.25V14.8334H17.4167V16.3334ZM20 15.5834V10.0834H18.5V15.5834H20ZM19.25 9.33337H11.9167V10.8334H19.25V9.33337ZM11.9167 6.25004H16.5V4.75004H11.9167V6.25004ZM15.8569 5.88591L18.6069 10.4692L19.8931 9.6975L17.1431 5.11417L15.8569 5.88591Z" fill="white" fill-opacity="0.2"/>
</svg>
